<svg xmlns="http://www.w3.org/2000/svg" width="1128" height="1032">
    <path style="fill:#020101; stroke:none;" d="M0 0L0 1032L1128 1032L1128 0L0 0z"/>
    <path style="fill:#94464a; stroke:none;" d="M100 11L100 19L108 19L108 11L100 11z"/>
    <path style="fill:#bb8c8e; stroke:none;" d="M108 11L108 19L155 19L155 11L108 11z"/>
    <path style="fill:#a58082; stroke:none;" d="M155 11L155 19L193 19L193 11L155 11z"/>
    <path style="fill:#94464a; stroke:none;" d="M193 11L193 19L116 19L116 509L108 509L108 602L116 602L116 936L123 936L123 975L155 975L155 982L217 982L217 990L224 990L224 982L217 982L217 128L248 128L248 136L287 136L287 128L675 128L675 136L691 136L691 143L706 143L706 151L714 151L714 143L722 143L722 159L729 159L729 151L737 151L737 159L761 159L761 167L768 167L768 174L792 174L792 182L799 182L799 190L807 190L807 198L823 198L823 205L830 205L830 213L838 213L838 221L846 221L846 229L854 229L854 237L862 237L862 244L854 244L854 252L862 252L862 260L869 260L869 252L877 252L877 260L885 260L885 275L900 275L900 291L908 291L908 299L900 299L900 307L908 307L908 299L916 299L916 322L924 322L924 330L932 330L932 353L939 353L939 361L947 361L947 392L955 392L955 415L963 415L963 462L970 462L970 540L963 540L963 586L955 586L955 610L947 610L947 641L939 641L939 656L932 656L932 672L924 672L924 687L916 687L916 703L908 703L908 711L900 711L900 726L893 726L893 734L885 734L885 742L877 742L877 749L869 749L869 765L854 765L854 757L846 757L846 765L854 765L854 780L838 780L838 788L830 788L830 796L823 796L823 804L815 804L815 812L799 812L799 819L792 819L792 827L776 827L776 835L761 835L761 843L737 843L737 850L729 850L729 858L706 858L706 850L698 850L698 866L675 866L675 874L644 874L644 866L636 866L636 874L613 874L613 881L590 881L590 913L582 913L582 982L605 982L605 975L683 975L683 967L722 967L722 959L745 959L745 951L768 951L768 944L784 944L784 936L799 936L799 928L815 928L815 920L830 920L830 913L838 913L838 905L854 905L854 897L862 897L862 889L869 889L869 881L885 881L885 874L893 874L893 866L900 866L900 858L908 858L908 850L916 850L916 843L924 843L924 835L932 835L932 827L939 827L939 819L947 819L947 812L955 812L955 804L963 804L963 796L970 796L970 788L978 788L978 773L986 773L986 765L994 765L994 757L1001 757L1001 742L1009 742L1009 734L1017 734L1017 718L1025 718L1025 703L1033 703L1033 679L1040 679L1040 664L1048 664L1048 633L1056 633L1056 602L1064 602L1064 400L1056 400L1056 369L1048 369L1048 338L1040 338L1040 322L1033 322L1033 299L1025 299L1025 283L1017 283L1017 268L1009 268L1009 260L1001 260L1001 244L994 244L994 237L986 237L986 221L978 221L978 213L970 213L970 205L963 205L963 198L955 198L955 190L947 190L947 182L939 182L939 174L932 174L932 167L924 167L924 159L916 159L916 151L908 151L908 143L900 143L900 136L893 136L893 128L885 128L885 120L877 120L877 112L862 112L862 104L854 104L854 97L838 97L838 89L830 89L830 81L815 81L815 73L799 73L799 66L784 66L784 58L768 58L768 50L745 50L745 42L714 42L714 35L675 35L675 27L527 27L527 19L232 19L232 11L193 11z"/>
    <path style="fill:#513234; stroke:none;" d="M232 11L232 19L318 19L318 11L232 11M100 19L100 128L108 128L108 19L100 19z"/>
    <path style="fill:#a58082; stroke:none;" d="M108 19L108 509L116 509L116 19L108 19z"/>
    <path style="fill:#513234; stroke:none;" d="M527 19L527 27L590 27L590 19L527 19M675 27L675 35L691 35L691 27L675 27M714 35L714 42L729 42L729 35L714 35M745 42L745 50L753 50L753 42L745 42M784 58L784 66L792 66L792 58L784 58M799 66L799 73L807 73L807 66L799 66M815 73L815 81L823 81L823 73L815 73M838 89L838 97L846 97L846 89L838 89M862 104L862 112L869 112L869 104L862 104z"/>
    <path style="fill:#a58082; stroke:none;" d="M217 128L217 136L224 136L224 128L217 128z"/>
    <path style="fill:#513234; stroke:none;" d="M224 128L224 136L248 136L248 128L224 128z"/>
    <path style="fill:#a58082; stroke:none;" d="M287 128L287 136L325 136L325 128L287 128z"/>
    <path style="fill:#bb8c8e; stroke:none;" d="M325 128L325 136L652 136L652 128L325 128z"/>
    <path style="fill:#a58082; stroke:none;" d="M652 128L652 136L675 136L675 128L652 128z"/>
    <path style="fill:#513234; stroke:none;" d="M893 128L893 136L900 136L900 128L893 128z"/>
    <path style="fill:#bb8c8e; stroke:none;" d="M217 136L217 982L224 982L224 136L217 136z"/>
    <path style="fill:#513234; stroke:none;" d="M900 136L900 143L908 143L908 136L900 136z"/>
    <path style="fill:#a58082; stroke:none;" d="M714 143L714 151L722 151L722 143L714 143z"/>
    <path style="fill:#513234; stroke:none;" d="M908 143L908 151L916 151L916 143L908 143z"/>
    <path style="fill:#a58082; stroke:none;" d="M729 151L729 159L737 159L737 151L729 151z"/>
    <path style="fill:#513234; stroke:none;" d="M916 151L916 159L924 159L924 151L916 151M737 159L737 167L745 167L745 159L737 159z"/>
    <path style="fill:#bb8c8e; stroke:none;" d="M745 159L745 167L753 167L753 159L745 159z"/>
    <path style="fill:#a58082; stroke:none;" d="M753 159L753 167L761 167L761 174L768 174L768 167L761 167L761 159L753 159z"/>
    <path style="fill:#513234; stroke:none;" d="M924 159L924 167L932 167L932 159L924 159M753 167L753 174L761 174L761 167L753 167M932 167L932 174L939 174L939 167L932 167z"/>
    <path style="fill:#a58082; stroke:none;" d="M768 174L768 182L792 182L792 190L799 190L799 182L792 182L792 174L768 174z"/>
    <path style="fill:#513234; stroke:none;" d="M939 174L939 182L947 182L947 174L939 174z"/>
    <path style="fill:#bb8c8e; stroke:none;" d="M784 182L784 190L792 190L792 182L784 182z"/>
    <path style="fill:#513234; stroke:none;" d="M947 182L947 190L955 190L955 182L947 182z"/>
    <path style="fill:#bb8c8e; stroke:none;" d="M792 190L792 198L807 198L807 190L792 190z"/>
    <path style="fill:#513234; stroke:none;" d="M955 190L955 198L963 198L963 190L955 190M799 198L799 205L807 205L807 198L799 198z"/>
    <path style="fill:#a58082; stroke:none;" d="M807 198L807 205L823 205L823 213L830 213L830 221L838 221L838 237L846 237L846 244L862 244L862 237L854 237L854 229L846 229L846 221L838 221L838 213L830 213L830 205L823 205L823 198L807 198z"/>
    <path style="fill:#bb8c8e; stroke:none;" d="M815 205L815 213L823 213L823 205L815 205M823 213L823 221L830 221L830 213L823 213M830 221L830 229L838 229L838 221L830 221z"/>
    <path style="fill:#513234; stroke:none;" d="M986 229L986 237L994 237L994 229L986 229z"/>
    <path style="fill:#a58082; stroke:none;" d="M862 244L862 252L869 252L869 244L862 244z"/>
    <path style="fill:#bb8c8e; stroke:none;" d="M341 252L341 260L349 260L349 252L341 252z"/>
    <path style="fill:#a58082; stroke:none;" d="M349 252L349 260L341 260L341 982L349 982L349 260L372 260L372 252L349 252z"/>
    <path style="fill:#94464a; stroke:none;" d="M372 252L372 260L349 260L349 982L341 982L341 990L349 990L349 982L419 982L419 975L450 975L450 796L458 796L458 788L450 788L450 734L458 734L458 439L465 439L465 415L458 415L458 369L465 369L465 361L590 361L590 369L644 369L644 376L660 376L660 384L675 384L675 392L683 392L683 400L691 400L691 408L698 408L698 415L706 415L706 431L714 431L714 439L722 439L722 470L729 470L729 532L722 532L722 563L714 563L714 571L706 571L706 586L698 586L698 594L691 594L691 586L683 586L683 594L675 594L675 602L683 602L683 610L675 610L675 617L660 617L660 625L652 625L652 633L628 633L628 625L621 625L621 641L590 641L590 742L652 742L652 734L667 734L667 726L691 726L691 718L706 718L706 711L714 711L714 703L729 703L729 695L737 695L737 687L745 687L745 679L753 679L753 672L761 672L761 664L768 664L768 656L776 656L776 648L784 648L784 641L792 641L792 633L799 633L799 617L807 617L807 602L815 602L815 586L823 586L823 516L830 516L830 470L823 470L823 423L815 423L815 392L807 392L807 384L799 384L799 369L792 369L792 361L784 361L784 353L776 353L776 345L768 345L768 338L761 338L761 330L753 330L753 322L745 322L745 314L737 314L737 307L729 307L729 299L722 299L722 291L706 291L706 283L691 283L691 275L660 275L660 268L590 268L590 260L426 260L426 252L372 252z"/>
    <path style="fill:#513234; stroke:none;" d="M426 252L426 260L473 260L473 252L426 252z"/>
    <path style="fill:#a58082; stroke:none;" d="M869 252L869 268L877 268L877 275L885 275L885 260L877 260L877 252L869 252z"/>
    <path style="fill:#513234; stroke:none;" d="M1001 252L1001 260L1009 260L1009 252L1001 252M590 260L590 268L613 268L613 260L590 260M660 268L660 275L667 275L667 268L660 268z"/>
    <path style="fill:#a58082; stroke:none;" d="M885 275L885 283L893 283L893 291L900 291L900 275L885 275M900 291L900 299L908 299L908 291L900 291M908 299L908 314L916 314L916 299L908 299z"/>
    <path style="fill:#513234; stroke:none;" d="M737 307L737 314L745 314L745 307L737 307M745 314L745 322L753 322L753 314L745 314M1033 314L1033 322L1040 322L1040 314L1033 314M753 322L753 330L761 330L761 322L753 322z"/>
    <path style="fill:#a58082; stroke:none;" d="M916 322L916 330L924 330L924 322L916 322z"/>
    <path style="fill:#513234; stroke:none;" d="M761 330L761 338L768 338L768 330L761 330z"/>
    <path style="fill:#a58082; stroke:none;" d="M924 330L924 345L932 345L932 330L924 330z"/>
    <path style="fill:#513234; stroke:none;" d="M1040 330L1040 338L1048 338L1048 330L1040 330M768 338L768 345L776 345L776 338L768 338M776 345L776 353L784 353L784 345L776 345M924 345L924 353L932 353L932 345L924 345z"/>
    <path style="fill:#a58082; stroke:none;" d="M932 353L932 369L939 369L939 392L947 392L947 400L955 400L955 392L947 392L947 361L939 361L939 353L932 353M465 361L465 376L489 376L489 369L590 369L590 361L465 361z"/>
    <path style="fill:#513234; stroke:none;" d="M1048 361L1048 369L1056 369L1056 361L1048 361z"/>
    <path style="fill:#bb8c8e; stroke:none;" d="M458 369L458 392L465 392L465 369L458 369M489 369L489 376L636 376L636 369L489 369z"/>
    <path style="fill:#a58082; stroke:none;" d="M636 369L636 384L660 384L660 376L644 376L644 369L636 369z"/>
    <path style="fill:#513234; stroke:none;" d="M799 376L799 384L807 384L807 376L799 376z"/>
    <path style="fill:#bb8c8e; stroke:none;" d="M660 384L660 392L667 392L667 384L660 384z"/>
    <path style="fill:#a58082; stroke:none;" d="M667 384L667 392L675 392L675 400L683 400L683 392L675 392L675 384L667 384M458 392L458 415L465 415L465 392L458 392z"/>
    <path style="fill:#513234; stroke:none;" d="M667 392L667 400L675 400L675 392L667 392M939 392L939 400L947 400L947 392L939 392M1056 392L1056 400L1064 400L1064 392L1056 392z"/>
    <path style="fill:#a58082; stroke:none;" d="M683 400L683 408L691 408L691 415L698 415L698 431L706 431L706 415L698 415L698 408L691 408L691 400L683 400z"/>
    <path style="fill:#bb8c8e; stroke:none;" d="M947 400L947 423L955 423L955 400L947 400z"/>
    <path style="fill:#513234; stroke:none;" d="M683 408L683 415L691 415L691 408L683 408M815 408L815 415L823 415L823 408L815 408M691 415L691 423L698 423L698 415L691 415z"/>
    <path style="fill:#a58082; stroke:none;" d="M815 415L815 423L823 423L823 415L815 415M955 415L955 454L963 454L963 415L955 415z"/>
    <path style="fill:#513234; stroke:none;" d="M947 423L947 431L955 431L955 423L947 423z"/>
    <path style="fill:#a58082; stroke:none;" d="M706 431L706 439L714 439L714 454L722 454L722 439L714 439L714 431L706 431z"/>
    <path style="fill:#513234; stroke:none;" d="M458 439L458 470L465 470L465 439L458 439z"/>
    <path style="fill:#bb8c8e; stroke:none;" d="M706 439L706 446L714 446L714 439L706 439z"/>
    <path style="fill:#513234; stroke:none;" d="M706 446L706 454L714 454L714 446L706 446z"/>
    <path style="fill:#bb8c8e; stroke:none;" d="M714 454L714 547L722 547L722 516L729 516L729 485L722 485L722 454L714 454z"/>
    <path style="fill:#513234; stroke:none;" d="M823 454L823 470L830 470L830 454L823 454z"/>
    <path style="fill:#bb8c8e; stroke:none;" d="M955 454L955 493L963 493L963 454L955 454z"/>
    <path style="fill:#513234; stroke:none;" d="M1064 454L1064 540L1071 540L1071 454L1064 454z"/>
    <path style="fill:#a58082; stroke:none;" d="M963 462L963 493L955 493L955 509L963 509L963 540L970 540L970 462L963 462M722 470L722 485L729 485L729 470L722 470z"/>
    <path style="fill:#bb8c8e; stroke:none;" d="M955 509L955 555L963 555L963 509L955 509z"/>
    <path style="fill:#a58082; stroke:none;" d="M722 516L722 532L729 532L729 516L722 516z"/>
    <path style="fill:#513234; stroke:none;" d="M823 516L823 540L830 540L830 516L823 516M706 547L706 555L714 555L714 547L706 547z"/>
    <path style="fill:#a58082; stroke:none;" d="M714 547L714 563L706 563L706 571L714 571L714 563L722 563L722 547L714 547z"/>
    <path style="fill:#bb8c8e; stroke:none;" d="M706 555L706 563L714 563L714 555L706 555z"/>
    <path style="fill:#a58082; stroke:none;" d="M955 555L955 578L947 578L947 586L963 586L963 555L955 555z"/>
    <path style="fill:#bb8c8e; stroke:none;" d="M698 571L698 578L706 578L706 571L698 571z"/>
    <path style="fill:#513234; stroke:none;" d="M947 571L947 578L955 578L955 571L947 571z"/>
    <path style="fill:#a58082; stroke:none;" d="M691 578L691 594L698 594L698 586L706 586L706 578L691 578z"/>
    <path style="fill:#bb8c8e; stroke:none;" d="M947 586L947 602L955 602L955 586L947 586z"/>
    <path style="fill:#a58082; stroke:none;" d="M683 594L683 602L691 602L691 594L683 594z"/>
    <path style="fill:#513234; stroke:none;" d="M108 602L108 718L116 718L116 602L108 602z"/>
    <path style="fill:#bb8c8e; stroke:none;" d="M667 602L667 610L660 610L660 617L667 617L667 610L675 610L675 602L667 602z"/>
    <path style="fill:#a58082; stroke:none;" d="M675 602L675 610L683 610L683 602L675 602z"/>
    <path style="fill:#513234; stroke:none;" d="M807 602L807 610L815 610L815 602L807 602M939 602L939 610L947 610L947 602L939 602z"/>
    <path style="fill:#a58082; stroke:none;" d="M947 602L947 610L955 610L955 602L947 602z"/>
    <path style="fill:#513234; stroke:none;" d="M1056 602L1056 610L1064 610L1064 602L1056 602M652 610L652 617L660 617L660 610L652 610z"/>
    <path style="fill:#a58082; stroke:none;" d="M667 610L667 617L675 617L675 610L667 610M939 610L939 641L932 641L932 648L924 648L924 656L939 656L939 641L947 641L947 610L939 610z"/>
    <path style="fill:#bb8c8e; stroke:none;" d="M644 617L644 625L652 625L652 617L644 617z"/>
    <path style="fill:#a58082; stroke:none;" d="M652 617L652 625L660 625L660 617L652 617z"/>
    <path style="fill:#513234; stroke:none;" d="M799 617L799 625L807 625L807 617L799 617z"/>
    <path style="fill:#bb8c8e; stroke:none;" d="M628 625L628 633L636 633L636 625L628 625z"/>
    <path style="fill:#a58082; stroke:none;" d="M636 625L636 633L652 633L652 625L636 625z"/>
    <path style="fill:#513234; stroke:none;" d="M932 625L932 633L939 633L939 625L932 625M597 633L597 641L605 641L605 633L597 633z"/>
    <path style="fill:#a58082; stroke:none;" d="M605 633L605 641L621 641L621 633L605 633z"/>
    <path style="fill:#bb8c8e; stroke:none;" d="M932 633L932 641L939 641L939 633L932 633z"/>
    <path style="fill:#513234; stroke:none;" d="M1048 633L1048 641L1056 641L1056 633L1048 633M582 656L582 711L590 711L590 656L582 656z"/>
    <path style="fill:#bb8c8e; stroke:none;" d="M924 656L924 664L932 664L932 656L924 656z"/>
    <path style="fill:#a58082; stroke:none;" d="M916 664L916 672L932 672L932 664L916 664z"/>
    <path style="fill:#bb8c8e; stroke:none;" d="M916 672L916 679L924 679L924 672L916 672z"/>
    <path style="fill:#a58082; stroke:none;" d="M908 679L908 703L893 703L893 711L908 711L908 703L916 703L916 687L924 687L924 679L908 679z"/>
    <path style="fill:#513234; stroke:none;" d="M1033 679L1033 687L1040 687L1040 679L1033 679z"/>
    <path style="fill:#bb8c8e; stroke:none;" d="M900 695L900 703L908 703L908 695L900 695z"/>
    <path style="fill:#513234; stroke:none;" d="M714 703L714 711L722 711L722 703L714 703M885 711L885 718L893 718L893 711L885 711z"/>
    <path style="fill:#bb8c8e; stroke:none;" d="M893 711L893 718L885 718L885 726L877 726L877 734L869 734L869 742L877 742L877 734L885 734L885 726L893 726L893 718L900 718L900 711L893 711z"/>
    <path style="fill:#513234; stroke:none;" d="M691 718L691 726L698 726L698 718L691 718z"/>
    <path style="fill:#a58082; stroke:none;" d="M893 718L893 726L900 726L900 718L893 718M667 726L667 734L675 734L675 726L667 726z"/>
    <path style="fill:#513234; stroke:none;" d="M675 726L675 734L683 734L683 726L675 726z"/>
    <path style="fill:#a58082; stroke:none;" d="M885 726L885 734L893 734L893 726L885 726z"/>
    <path style="fill:#513234; stroke:none;" d="M450 734L450 788L458 788L458 734L450 734z"/>
    <path style="fill:#a58082; stroke:none;" d="M877 734L877 742L885 742L885 734L877 734z"/>
    <path style="fill:#513234; stroke:none;" d="M605 742L605 749L613 749L613 742L605 742z"/>
    <path style="fill:#a58082; stroke:none;" d="M862 742L862 749L854 749L854 757L862 757L862 765L869 765L869 749L877 749L877 742L862 742z"/>
    <path style="fill:#513234; stroke:none;" d="M1001 742L1001 749L1009 749L1009 742L1001 742z"/>
    <path style="fill:#bb8c8e; stroke:none;" d="M854 757L854 765L862 765L862 757L854 757z"/>
    <path style="fill:#a58082; stroke:none;" d="M838 765L838 773L830 773L830 788L823 788L823 796L815 796L815 804L807 804L807 812L815 812L815 804L823 804L823 796L830 796L830 788L838 788L838 773L846 773L846 780L854 780L854 773L846 773L846 765L838 765z"/>
    <path style="fill:#bb8c8e; stroke:none;" d="M846 765L846 773L854 773L854 765L846 765M838 773L838 780L846 780L846 773L838 773z"/>
    <path style="fill:#513234; stroke:none;" d="M978 773L978 780L986 780L986 773L978 773z"/>
    <path style="fill:#bb8c8e; stroke:none;" d="M823 780L823 788L830 788L830 780L823 780M815 788L815 796L823 796L823 788L815 788z"/>
    <path style="fill:#513234; stroke:none;" d="M450 796L450 881L458 881L458 796L450 796M799 796L799 804L807 804L807 796L799 796z"/>
    <path style="fill:#bb8c8e; stroke:none;" d="M807 796L807 804L815 804L815 796L807 796M792 804L792 812L784 812L784 819L792 819L792 812L807 812L807 804L792 804z"/>
    <path style="fill:#513234; stroke:none;" d="M776 812L776 819L784 819L784 812L776 812z"/>
    <path style="fill:#a58082; stroke:none;" d="M792 812L792 819L799 819L799 812L792 812z"/>
    <path style="fill:#bb8c8e; stroke:none;" d="M768 819L768 827L776 827L776 819L768 819z"/>
    <path style="fill:#a58082; stroke:none;" d="M776 819L776 827L792 827L792 819L776 819z"/>
    <path style="fill:#513234; stroke:none;" d="M939 819L939 827L947 827L947 819L939 819z"/>
    <path style="fill:#a58082; stroke:none;" d="M753 827L753 843L761 843L761 835L776 835L776 827L753 827z"/>
    <path style="fill:#513234; stroke:none;" d="M932 827L932 835L939 835L939 827L932 827z"/>
    <path style="fill:#a58082; stroke:none;" d="M737 835L737 843L745 843L745 835L737 835z"/>
    <path style="fill:#bb8c8e; stroke:none;" d="M745 835L745 843L753 843L753 835L745 835z"/>
    <path style="fill:#513234; stroke:none;" d="M924 835L924 843L932 843L932 835L924 835z"/>
    <path style="fill:#bb8c8e; stroke:none;" d="M722 843L722 850L729 850L729 843L722 843z"/>
    <path style="fill:#a58082; stroke:none;" d="M729 843L729 850L737 850L737 843L729 843z"/>
    <path style="fill:#513234; stroke:none;" d="M916 843L916 850L924 850L924 843L916 843z"/>
    <path style="fill:#a58082; stroke:none;" d="M706 850L706 858L729 858L729 850L706 850z"/>
    <path style="fill:#513234; stroke:none;" d="M908 850L908 858L916 858L916 850L908 850M667 858L667 866L675 866L675 858L667 858z"/>
    <path style="fill:#a58082; stroke:none;" d="M675 858L675 866L698 866L698 858L675 858z"/>
    <path style="fill:#513234; stroke:none;" d="M628 866L628 874L636 874L636 866L628 866z"/>
    <path style="fill:#a58082; stroke:none;" d="M644 866L644 874L675 874L675 866L644 866z"/>
    <path style="fill:#513234; stroke:none;" d="M597 874L597 881L605 881L605 874L597 874z"/>
    <path style="fill:#a58082; stroke:none;" d="M605 874L605 881L613 881L613 874L605 874z"/>
    <path style="fill:#513234; stroke:none;" d="M869 881L869 889L877 889L877 881L869 881M862 889L862 897L869 897L869 889L862 889M582 897L582 913L590 913L590 897L582 897M838 905L838 913L846 913L846 905L838 905M815 920L815 928L823 928L823 920L815 920M799 928L799 936L807 936L807 928L799 928M116 936L116 959L123 959L123 936L116 936M784 936L784 944L792 944L792 936L784 936M745 951L745 959L753 959L753 951L745 951M722 959L722 967L729 967L729 959L722 959M683 967L683 975L691 975L691 967L683 967M139 975L139 982L155 982L155 975L139 975M419 975L419 982L426 982L426 975L419 975M605 975L605 982L628 982L628 975L605 975M201 982L201 990L217 990L217 982L201 982M349 982L349 990L364 990L364 982L349 982z"/>
</svg>
